<svg version="1.1" id="Layer_1" xmlns="http://www.w3.org/2000/svg" xmlns:xlink="http://www.w3.org/1999/xlink" x="0px" y="0px"
	 width="100%" viewBox="291 374 2261 812" enable-background="new 0 0 2816 1536" xml:space="preserve">

<path fill="#0176D3" opacity="1.000000" stroke="none" 
	d="
M1302.885254,822.326965 
	C1310.723755,820.718384 1317.857910,818.367981 1324.995361,818.357483 
	C1343.829468,818.329895 1362.172241,816.155029 1380.001831,809.905090 
	C1400.979370,802.551697 1418.668213,790.701843 1431.927246,772.634827 
	C1438.234009,764.040955 1444.509888,755.423889 1450.867798,746.867981 
	C1477.151001,711.499268 1512.882324,693.416443 1556.279907,689.683167 
	C1565.891479,688.856323 1575.599121,689.195618 1585.233276,688.557251 
	C1589.800293,688.254578 1594.599609,687.635376 1598.766846,685.896790 
	C1608.081787,682.010803 1611.426270,675.116394 1610.014038,664.914429 
	C1608.956421,657.274170 1602.463257,651.210876 1593.471069,650.025574 
	C1589.199951,649.462585 1584.826294,649.558411 1580.499146,649.557007 
	C1508.511841,649.533997 1436.524658,649.549316 1364.537354,649.531250 
	C1359.541016,649.529968 1354.517944,649.626770 1349.553467,649.173096 
	C1334.102173,647.761108 1322.583496,636.527649 1321.962036,622.569946 
	C1321.296021,607.612183 1332.416016,594.416992 1348.070312,592.151550 
	C1353.645752,591.344727 1359.367432,591.459167 1365.026245,591.332886 
	C1383.679321,590.916626 1402.362549,591.108521 1420.982788,590.109863 
	C1462.152100,587.901733 1492.841431,568.316467 1513.471191,532.732300 
	C1521.313843,519.204468 1528.373047,505.122498 1537.277954,492.329102 
	C1564.580444,453.103790 1602.094238,427.283783 1647.727173,414.359436 
	C1721.120850,393.572571 1787.403198,408.141663 1845.390015,458.081268 
	C1853.423706,465.000153 1860.270508,473.297485 1868.263672,481.574768 
	C1873.308594,477.541016 1877.565674,474.037506 1881.925537,470.666687 
	C1923.012451,438.899200 1969.317017,423.165558 2021.428345,425.593445 
	C2075.587891,428.116791 2120.014404,451.324738 2156.444580,490.501465 
	C2166.348633,501.152313 2174.559326,513.377441 2183.544678,524.876587 
	C2289.945557,487.570129 2381.883789,511.168243 2456.919678,595.373901 
	C2517.469971,663.323669 2531.851074,771.195007 2487.979004,853.709167 
	C2434.514648,954.264954 2348.925781,995.965088 2235.932129,984.212585 
	C2188.410400,1052.037598 2099.802246,1088.917358 2009.437500,1050.619019 
	C1965.659424,1123.745483 1902.047974,1165.096924 1816.077271,1160.340576 
	C1730.571533,1155.609863 1670.681885,1108.845825 1633.735596,1031.327393 
	C1629.367798,1031.715088 1624.752319,1032.000488 1620.168823,1032.551758 
	C1590.511353,1036.118408 1561.553833,1032.685913 1533.612427,1022.533936 
	C1512.049194,1014.699402 1490.955811,1005.572083 1469.649292,997.029907 
	C1442.452637,986.126343 1414.171021,980.552429 1384.902222,980.214233 
	C1365.908325,979.994812 1346.908447,980.303467 1327.913818,980.112122 
	C1323.662598,980.069275 1319.207153,979.547668 1315.219116,978.167419 
	C1304.756958,974.546448 1299.766479,965.502991 1301.484131,954.516113 
	C1303.031860,944.614990 1309.864258,938.531067 1320.780884,937.662231 
	C1325.089478,937.319275 1329.438965,937.438477 1333.769897,937.437988 
	C1407.090210,937.429993 1480.410645,937.462036 1553.730835,937.382629 
	C1558.690308,937.377258 1563.708374,936.898804 1568.596313,936.049133 
	C1581.999390,933.719421 1591.840210,922.447937 1592.470093,909.145386 
	C1593.156494,894.653748 1584.320190,881.332764 1571.014404,877.925964 
	C1565.610474,876.542236 1559.817749,876.202637 1554.200928,876.195557 
	C1476.881470,876.097900 1399.561768,876.152771 1322.242188,876.120178 
	C1317.926147,876.118408 1313.454956,876.322815 1309.324097,875.323059 
	C1297.760498,872.524597 1289.658936,865.666443 1287.143555,853.563660 
	C1284.725342,841.928162 1289.096191,832.705688 1298.002686,825.354919 
	C1299.273804,824.305847 1300.783325,823.545654 1302.885254,822.326965 
M2197.567139,828.409424 
	C2207.674316,808.177246 2208.954834,786.927856 2204.533691,765.139648 
	C2199.210449,738.907043 2184.441895,719.909485 2160.168945,708.460022 
	C2147.346924,702.411926 2133.894043,699.186401 2119.631104,699.246826 
	C2094.650635,699.352722 2069.668701,699.226440 2044.687500,699.260925 
	C2042.155762,699.264404 2039.624390,699.701843 2037.398682,699.909424 
	C2037.398682,758.207336 2037.398682,815.694824 2037.398682,873.407471 
	C2040.390137,873.541138 2042.692749,873.730774 2044.995483,873.733521 
	C2069.976807,873.762817 2094.980713,874.440308 2119.933838,873.603699 
	C2152.982178,872.495483 2179.761719,859.341370 2197.567139,828.409424 
M1645.045166,707.877136 
	C1641.668335,710.575989 1638.053101,713.027405 1634.953125,716.013733 
	C1615.067139,735.171143 1613.866211,773.408020 1645.132080,789.633667 
	C1650.128418,792.226562 1655.392700,794.450867 1660.749390,796.172241 
	C1673.414551,800.242371 1686.252197,803.775146 1698.930054,807.808105 
	C1703.322754,809.205383 1707.836914,810.860168 1711.623413,813.399719 
	C1721.508301,820.029358 1721.306641,832.894043 1710.979858,838.813049 
	C1706.236328,841.531860 1700.422974,843.332275 1694.970581,843.697937 
	C1674.184326,845.092041 1654.540771,841.112610 1637.057373,829.014832 
	C1635.210083,827.736511 1633.187866,826.710815 1630.749268,825.274963 
	C1625.980103,835.289612 1621.435059,844.833618 1616.820923,854.522644 
	C1618.547241,855.950684 1619.742432,857.093384 1621.087769,858.017334 
	C1623.281006,859.523315 1625.490601,861.039795 1627.834473,862.286499 
	C1653.160278,875.757568 1680.223633,879.598450 1708.270142,875.290405 
	C1724.818481,872.748535 1739.206421,865.297546 1749.719360,851.525208 
	C1764.265015,832.469666 1763.025391,801.373474 1738.930420,785.680725 
	C1734.227661,782.617920 1729.146729,779.816101 1723.855103,778.043091 
	C1712.513794,774.243103 1700.852905,771.406128 1689.455688,767.759949 
	C1682.200317,765.438904 1674.732178,763.169678 1668.167358,759.450928 
	C1658.807861,754.149048 1658.038940,742.875122 1666.373169,736.056458 
	C1670.061646,733.038513 1675.011719,730.881104 1679.715088,729.906738 
	C1696.999146,726.326111 1713.430298,729.827332 1729.151855,737.361145 
	C1732.371216,738.903809 1735.595459,740.435913 1739.186523,742.148926 
	C1742.983765,732.052856 1746.579590,722.491943 1750.404175,712.322754 
	C1746.645752,710.122559 1743.396118,707.816162 1739.833008,706.201904 
	C1720.565674,697.472534 1700.295532,694.703491 1679.357178,696.845032 
	C1667.690430,698.038208 1656.335571,700.552246 1645.045166,707.877136 
M2272.961182,758.502625 
	C2287.244385,730.364258 2328.753174,716.209656 2363.594971,749.868896 
	C2371.612549,742.057312 2379.642334,734.233765 2387.184082,726.885742 
	C2386.152344,724.546997 2385.984131,723.885681 2385.608398,723.378357 
	C2385.018311,722.581970 2384.307861,721.870361 2383.614746,721.155457 
	C2369.282959,706.372253 2351.391113,699.071289 2331.299561,696.871826 
	C2270.710205,690.239197 2231.728027,730.169250 2226.871826,776.285522 
	C2222.476318,818.023254 2244.087646,857.530640 2285.095703,871.403748 
	C2303.497314,877.629028 2322.448242,878.541992 2341.294434,874.996033 
	C2360.506836,871.381287 2376.005127,861.040894 2388.158203,845.002747 
	C2379.602539,837.107910 2371.554199,829.681091 2363.303223,822.067261 
	C2359.000732,825.673950 2355.185303,828.843018 2351.401611,832.049255 
	C2333.377930,847.321350 2293.609131,848.064819 2276.030273,819.125916 
	C2264.387695,799.959473 2263.983154,780.226929 2272.961182,758.502625 
M1819.001221,699.324890 
	C1808.108154,699.324890 1797.215088,699.324890 1786.468262,699.324890 
	C1784.478760,714.192200 1785.079712,866.012817 1786.969849,872.972412 
	C1799.834961,872.972412 1812.626709,872.972412 1826.192505,872.972412 
	C1826.192505,851.733765 1826.192505,831.231506 1826.192505,809.864197 
	C1852.453491,809.864197 1877.922485,809.864197 1903.386230,809.864197 
	C1903.386230,798.552002 1903.386230,788.145020 1903.386230,777.613403 
	C1877.201050,777.072205 1851.727295,777.938171 1825.897217,777.057007 
	C1825.890381,761.335388 1825.794189,746.874390 1825.947632,731.645996 
	C1856.254639,731.645996 1885.077026,731.645996 1914.037354,731.645996 
	C1914.037354,720.641296 1914.037354,710.451233 1914.037354,699.326843 
	C1882.736572,699.326843 1851.868896,699.326843 1819.001221,699.324890 
M2005.108154,814.034302 
	C2005.108154,804.828613 2005.108154,795.622864 2005.108154,786.453369 
	C1980.691284,786.453369 1957.331665,786.453369 1934.364258,786.453369 
	C1934.364258,797.233215 1934.364258,807.306946 1934.364258,817.810913 
	C1956.997925,817.810913 1978.853760,817.846558 2000.708618,817.726379 
	C2002.088257,817.718811 2003.461304,816.496643 2005.108154,814.034302 
M1719.082520,487.262604 
	C1717.555420,481.773224 1713.154419,480.534698 1708.337524,480.347778 
	C1703.169312,480.147247 1698.505615,481.795013 1695.116699,485.862000 
	C1691.573120,490.114441 1693.040649,494.849243 1698.246704,496.699707 
	C1705.981323,499.448883 1714.629028,496.129333 1719.082520,487.262604 
M1587.049438,535.971069 
	C1584.398804,539.653198 1581.290405,543.109680 1579.311768,547.123230 
	C1578.462769,548.845215 1579.199829,552.791321 1580.599243,553.791138 
	C1582.125122,554.881348 1585.854858,554.571106 1587.548828,553.363403 
	C1590.387207,551.339905 1592.739258,548.353210 1594.641846,545.356445 
	C1598.621704,539.087646 1596.608643,536.069092 1587.049438,535.971069 
M1647.734375,512.671387 
	C1649.384888,510.429291 1652.289673,508.212494 1652.335571,505.937927 
	C1652.381958,503.633636 1650.067627,500.122345 1647.929932,499.256500 
	C1645.752808,498.374725 1641.673584,499.214050 1640.007080,500.880005 
	C1638.327148,502.559143 1637.240356,507.057922 1638.331421,508.735291 
	C1639.789185,510.976166 1643.597656,511.687805 1647.734375,512.671387 
z"/>
<path fill="#0176D3" opacity="1.000000" stroke="none" 
	d="
M1536.559814,444.558411 
	C1519.997192,465.818542 1503.422119,487.069061 1486.875244,508.341522 
	C1469.900513,530.163940 1446.096680,539.223633 1419.942749,541.708496 
	C1398.117798,543.782104 1376.029663,543.438965 1354.056885,543.476318 
	C1339.793579,543.500610 1326.349609,546.278503 1313.223877,551.612488 
	C1289.205811,561.372986 1273.518799,578.823730 1264.686768,602.941040 
	C1259.773682,616.357300 1255.401123,630.081421 1249.168579,642.879700 
	C1239.004395,663.750916 1222.788574,678.597778 1200.406494,686.103210 
	C1199.650513,686.356689 1199.061035,687.106506 1196.570190,689.042603 
	C1271.359619,689.042603 1344.094849,689.042603 1416.918579,689.042603 
	C1419.805908,701.511963 1416.503052,711.768188 1410.977783,721.492249 
	C1402.623657,736.195068 1389.784668,745.654419 1373.657959,749.503296 
	C1362.441895,752.180176 1350.671997,753.316040 1339.112427,753.593018 
	C1321.392822,754.017700 1303.848999,754.868042 1286.664062,759.620850 
	C1234.389404,774.078613 1196.865845,805.026062 1178.671997,857.054260 
	C1162.414917,903.543823 1146.727295,950.232422 1130.759277,996.823181 
	C1122.786377,1020.085876 1114.748047,1043.326172 1106.527222,1067.192261 
	C1052.323608,1067.192261 998.132507,1067.192261 942.676147,1067.192261 
	C897.024902,939.824951 853.629211,810.964478 808.374939,680.377747 
	C793.388489,724.580078 778.912781,767.165894 764.513428,809.777405 
	C750.026489,852.648010 735.697876,895.572266 721.148254,938.421509 
	C706.602356,981.260010 691.868591,1024.034668 677.056396,1067.307129 
	C623.072388,1067.307129 569.153198,1067.307129 513.971802,1067.307129 
	C444.644257,872.367615 378.069183,675.873047 311.252686,478.392944 
	C363.706726,478.392944 415.122986,478.392944 467.585876,478.392944 
	C512.978516,612.948242 555.462158,749.018433 601.674805,883.833923 
	C602.344604,883.789917 603.014404,883.745850 603.684265,883.701843 
	C649.901367,748.501648 696.118469,613.301514 742.342651,478.080688 
	C788.335876,478.080688 833.579956,478.080688 879.410522,478.080688 
	C894.557373,523.366089 909.556763,568.480591 924.741455,613.532593 
	C940.042603,658.930298 955.566223,704.252991 970.921753,749.632507 
	C986.118408,794.542542 1000.834961,839.621704 1017.079712,884.158447 
	C1017.960815,884.112061 1018.841919,884.065735 1019.723022,884.019348 
	C1063.809937,748.842651 1107.896973,613.665955 1152.253296,477.663605 
	C1156.044556,477.663605 1159.630859,477.663269 1163.217285,477.663696 
	C1236.211914,477.672729 1309.206909,477.790009 1382.201172,477.642365 
	C1415.668213,477.574677 1448.652832,473.566772 1480.857422,464.035919 
	C1499.100098,458.637024 1516.833740,452.018066 1534.630371,443.213745 
	C1535.988037,443.895294 1536.273926,444.226837 1536.559814,444.558411 
z"/>
<path fill="#0176D3" opacity="1.000000" stroke="none" 
	d="
M1394.088989,906.170715 
	C1437.076416,901.594543 1480.060181,896.984680 1523.054077,892.470520 
	C1531.654663,891.567566 1540.286255,890.903992 1548.919067,890.393799 
	C1551.858398,890.220093 1554.935547,890.490540 1557.794312,891.191650 
	C1566.499023,893.326599 1571.296875,899.505859 1570.901001,907.552246 
	C1570.534302,915.005310 1565.377930,921.042725 1557.071899,922.216431 
	C1550.874634,923.092163 1544.438965,923.224976 1538.197510,922.680054 
	C1512.684448,920.452637 1487.207642,917.812134 1461.712769,915.373718 
	C1439.858643,913.283508 1417.997925,911.261536 1395.338379,908.527832 
	C1394.121094,907.358887 1393.971802,906.800354 1394.088989,906.170715 
z"/>
<path fill="#0176D3" opacity="1.000000" stroke="none" 
	d="
M1421.374268,743.926697 
	C1408.478149,777.533752 1382.859863,793.503967 1348.088501,796.746094 
	C1343.781982,797.147583 1339.449585,797.681030 1335.141357,797.588440 
	C1313.908203,797.132202 1292.679199,796.485413 1270.137451,795.870117 
	C1274.110596,790.844971 1278.556885,788.317139 1283.210083,786.151184 
	C1297.309692,779.588379 1312.226685,776.937012 1327.713135,776.197144 
	C1340.642090,775.579529 1353.623047,774.547180 1366.396973,772.531677 
	C1387.207397,769.248169 1404.243286,758.533447 1419.398438,743.570068 
	C1420.539185,743.767761 1420.956665,743.847229 1421.374268,743.926697 
z"/>
<path fill="#0176D3" opacity="1.000000" stroke="none" 
	d="
M1468.245117,544.657166 
	C1474.269165,541.354980 1479.636719,538.429749 1486.329468,534.782349 
	C1470.232666,567.212524 1404.980103,586.417664 1375.875244,568.142273 
	C1379.982910,563.358887 1385.674072,562.704834 1391.007935,561.893433 
	C1403.500000,559.993103 1416.245850,559.372986 1428.537964,556.650146 
	C1441.763672,553.720581 1454.588745,548.982849 1468.245117,544.657166 
z"/>
<path fill="#0176D3" opacity="1.000000" stroke="none" 
	d="
M1242.480225,949.145325 
	C1246.881836,945.685547 1250.527710,941.704834 1254.966187,940.380615 
	C1265.822388,937.141724 1276.768188,944.802307 1278.608643,955.879639 
	C1280.601074,967.870972 1273.142090,978.763611 1262.013794,980.113708 
	C1250.183960,981.548950 1240.136597,973.325134 1239.821655,961.362610 
	C1239.720947,957.541870 1241.283569,953.677429 1242.480225,949.145325 
z"/>
<path fill="#0176D3" opacity="1.000000" stroke="none" 
	d="
M1472.915039,687.600525 
	C1464.692261,690.808716 1457.211914,690.603455 1449.845459,687.545227 
	C1445.980469,685.940613 1442.021240,683.109436 1442.983398,678.890442 
	C1443.740845,675.568665 1446.949463,671.933228 1450.053589,670.202148 
	C1456.375000,666.676758 1463.526245,666.847412 1470.350708,669.258362 
	C1480.833252,672.961487 1481.993530,679.708496 1472.915039,687.600525 
z"/>
<path fill="#0176D3" opacity="1.000000" stroke="none" 
	d="
M1299.161865,639.168945 
	C1300.471558,642.581238 1301.856323,645.350891 1301.984253,648.177429 
	C1302.257812,654.225159 1297.783447,660.022034 1292.284302,661.668091 
	C1286.723267,663.332642 1280.101562,660.766724 1276.734009,655.642578 
	C1273.435059,650.622498 1273.630615,644.867493 1277.268433,639.924438 
	C1281.037842,634.802490 1287.318115,632.558838 1292.994995,634.721985 
	C1295.070801,635.513000 1296.786987,637.247803 1299.161865,639.168945 
z"/>
<path fill="#0176D3" opacity="1.000000" stroke="none" 
	d="
M1205.218262,896.562744 
	C1207.606689,895.335205 1209.355469,894.163513 1211.221313,893.931213 
	C1217.196167,893.187256 1221.964111,895.856873 1224.206177,900.786316 
	C1226.298340,905.385681 1225.078857,910.970825 1221.257690,914.291382 
	C1217.567383,917.498169 1211.738525,918.098755 1207.352661,915.724121 
	C1202.630981,913.167603 1200.386719,908.036926 1201.818726,902.165955 
	C1202.264038,900.340027 1203.667236,898.747742 1205.218262,896.562744 
z"/>
<path fill="#0176D3" opacity="1.000000" stroke="none" 
	d="
M1397.932739,441.979980 
	C1399.549072,439.900208 1400.697510,438.137970 1402.318359,437.155579 
	C1406.886719,434.386810 1411.759155,434.824310 1415.084595,438.014069 
	C1418.577881,441.364685 1419.187378,445.492462 1417.611206,449.841919 
	C1416.131226,453.926453 1410.957153,456.660339 1406.308350,456.231567 
	C1401.350830,455.774353 1397.968628,452.743073 1397.054443,447.480103 
	C1396.789307,445.953552 1397.446289,444.266785 1397.932739,441.979980 
z"/>
<path fill="#0176D3" opacity="1.000000" stroke="none" 
	d="
M1465.578125,420.354431 
	C1466.145508,423.256439 1466.875488,425.638550 1466.473877,427.811523 
	C1465.417358,433.527374 1460.047485,436.912109 1454.615845,435.736694 
	C1449.216187,434.568207 1445.323120,429.060455 1446.219971,423.858551 
	C1447.215454,418.083893 1453.111206,413.876953 1458.791626,415.475464 
	C1461.149292,416.138885 1463.093140,418.273590 1465.578125,420.354431 
z"/>
<path fill="#0176D3" opacity="1.000000" stroke="none" 
	d="
M1238.693726,851.037903 
	C1237.349854,848.720337 1236.035034,847.014587 1235.859497,845.198730 
	C1235.249512,838.886414 1239.541504,834.075989 1245.433472,834.012085 
	C1250.921387,833.952576 1255.117188,838.484741 1254.948364,844.289795 
	C1254.773071,850.318787 1249.978638,854.415527 1243.656860,853.642334 
	C1242.125977,853.455078 1240.712524,852.305969 1238.693726,851.037903 
z"/>
<path fill="#0176D3" opacity="1.000000" stroke="none" 
	d="
M1357.881836,1005.876709 
	C1360.429077,1004.993774 1362.369019,1003.968445 1364.175049,1004.166321 
	C1369.884277,1004.791687 1373.486694,1009.772766 1372.689697,1015.341736 
	C1371.948486,1020.521057 1367.127563,1024.349365 1362.242188,1023.638123 
	C1356.874756,1022.856689 1352.923950,1017.712952 1353.969971,1012.161682 
	C1354.362915,1010.076172 1356.092773,1008.242615 1357.881836,1005.876709 
z"/>
<path fill="#0176D3" opacity="1.000000" stroke="none" 
	d="
M1393.321289,905.966309 
	C1393.971802,906.800354 1394.121094,907.358887 1394.500732,908.292236 
	C1391.805420,908.738220 1389.145874,908.738220 1386.486450,908.738220 
	C1386.492065,908.026978 1386.497681,907.315735 1386.503296,906.604492 
	C1388.520142,906.323669 1390.536865,906.042786 1393.321289,905.966309 
z"/>
<path fill="#0176D3" opacity="1.000000" stroke="none" 
	d="
M1535.763672,441.678772 
	C1537.694946,440.121704 1539.626221,438.564606 1541.557373,437.007538 
	C1541.969238,437.341034 1542.381104,437.674500 1542.792847,438.007996 
	C1541.938843,439.354370 1541.084717,440.700714 1538.839844,442.033295 
	C1536.887207,441.905914 1536.325439,441.792328 1535.763672,441.678772 
z"/>
<path fill="#0176D3" opacity="1.000000" stroke="none" 
	d="
M1419.927979,743.080933 
	C1420.668701,740.505859 1421.603149,738.538147 1422.537598,736.570496 
	C1423.004272,736.738525 1423.470825,736.906616 1423.937500,737.074646 
	C1423.383911,739.114685 1422.830322,741.154663 1421.825439,743.560669 
	C1420.956665,743.847229 1420.539185,743.767761 1419.927979,743.080933 
z"/>
<path fill="#0176D3" opacity="1.000000" stroke="none" 
	d="
M1535.503174,441.826355 
	C1536.325439,441.792328 1536.887207,441.905914 1538.308594,442.015137 
	C1538.678223,442.685028 1538.187988,443.359253 1537.128784,444.295929 
	C1536.273926,444.226837 1535.988037,443.895294 1535.322021,443.027893 
	C1534.942139,442.492096 1535.242554,441.973938 1535.503174,441.826355 
z"/>





<path fill="#0176D3" opacity="1.000000" stroke="none" 
	d="
M1719.086914,487.980408 
	C1714.629028,496.129333 1705.981323,499.448883 1698.246704,496.699707 
	C1693.040649,494.849243 1691.573120,490.114441 1695.116699,485.862000 
	C1698.505615,481.795013 1703.169312,480.147247 1708.337524,480.347778 
	C1713.154419,480.534698 1717.555420,481.773224 1719.086914,487.980408 
z"/>
<path fill="#0176D3" opacity="1.000000" stroke="none" 
	d="
M1587.717285,535.678955 
	C1596.608643,536.069092 1598.621704,539.087646 1594.641846,545.356445 
	C1592.739258,548.353210 1590.387207,551.339905 1587.548828,553.363403 
	C1585.854858,554.571106 1582.125122,554.881348 1580.599243,553.791138 
	C1579.199829,552.791321 1578.462769,548.845215 1579.311768,547.123230 
	C1581.290405,543.109680 1584.398804,539.653198 1587.717285,535.678955 
z"/>
<path fill="#0176D3" opacity="1.000000" stroke="none" 
	d="
M1647.065430,512.863831 
	C1643.597656,511.687805 1639.789185,510.976166 1638.331421,508.735291 
	C1637.240356,507.057922 1638.327148,502.559143 1640.007080,500.880005 
	C1641.673584,499.214050 1645.752808,498.374725 1647.929932,499.256500 
	C1650.067627,500.122345 1652.381958,503.633636 1652.335571,505.937927 
	C1652.289673,508.212494 1649.384888,510.429291 1647.065430,512.863831 
z"/>
<path fill="#0176D3" opacity="1.000000" stroke="none" 
	d="
M2166.197510,778.736816 
	C2165.643799,787.204651 2165.998779,795.021973 2164.179199,802.295227 
	C2158.451904,825.186768 2140.054443,839.657776 2116.547852,840.313965 
	C2103.641602,840.674255 2090.716797,840.378479 2077.321289,840.378479 
	C2077.321289,804.099976 2077.321289,768.650330 2077.321289,732.631958 
	C2092.579834,732.631958 2107.604492,731.135132 2122.211670,732.966492 
	C2146.993408,736.073425 2161.188721,751.701172 2166.197510,778.736816 
z"/>
</svg>